# xmcd
#
# Track frame offsets:
#	150
#	23622
#	60812
#	90785
#	106925
#	128690
#	154970
#	179320
#	203177
#	222480
#
# Disc length: 3276 seconds
#
# Revision: 1
# Processed by: cddbd v1.4PL0 Copyright (c) Steve Scherf et al.
# Submitted via: audiograbber 1.80
#
DISCID=760cca0a
DTITLE=John Starnes - The Best of John Starnes
DYEAR=1900
DGENRE=
TTITLE0=Forever the Son is Gonna Reign
TTITLE1=Somebody Touched Me
TTITLE2=Holy is thy Name
TTITLE3=I'm Going Home Someday
TTITLE4=I Saw Love
TTITLE5=You've Never Seen Such Shouting
TTITLE6=There is a Saviour
TTITLE7=When He was on the Cross
TTITLE8=Royal Telephone
TTITLE9=The King of Who I Am
EXTD=
EXTT0=
EXTT1=
EXTT2=
EXTT3=
EXTT4=
EXTT5=
EXTT6=
EXTT7=
EXTT8=
EXTT9=
PLAYORDER=
